<svg width="32" height="32" viewBox="0 0 32 32" fill="none" xmlns="http://www.w3.org/2000/svg">
  <rect width="32" height="32" rx="6" fill="white"/>
  <g transform="translate(0, 3.5) scale(0.988)">
    <path d="M24.2929 1.06665H1.27858C0.572438 1.06665 0 1.63909 0 2.34523V6.18096C0 6.88709 0.572438 7.45953 1.27858 7.45953H24.2929C24.9991 7.45953 25.5715 6.88709 25.5715 6.18096V2.34523C25.5715 1.63909 24.9991 1.06665 24.2929 1.06665Z" fill="#4F46E5"/>
    <path d="M30.6858 9.59045H7.67146C6.96532 9.59045 6.39288 10.1629 6.39288 10.869V14.7048C6.39288 15.4109 6.96532 15.9833 7.67146 15.9833H30.6858C31.392 15.9833 31.9644 15.4109 31.9644 14.7048V10.869C31.9644 10.1629 31.392 9.59045 30.6858 9.59045Z" fill="#7C3AED" fill-opacity="0.85"/>
    <path d="M24.2929 18.114H1.27858C0.572438 18.114 0 18.6865 0 19.3926V23.2283C0 23.9345 0.572438 24.5069 1.27858 24.5069H24.2929C24.9991 24.5069 25.5715 23.9345 25.5715 23.2283V19.3926C25.5715 18.6865 24.9991 18.114 24.2929 18.114Z" fill="#4F46E5"/>
  </g>
</svg>
